<?xml version="1.0" standalone="no"?>
<!DOCTYPE svg PUBLIC "-//W3C//DTD SVG 20010904//EN"
 "http://www.w3.org/TR/2001/REC-SVG-20010904/DTD/svg10.dtd">
<svg version="1.0" xmlns="http://www.w3.org/2000/svg"
 width="300.000000pt" height="408.000000pt" viewBox="0 0 300.000000 408.000000"
 preserveAspectRatio="xMidYMid meet">
<metadata>
Created by potrace 1.10, written by Peter Selinger 2001-2011
</metadata>
<g transform="translate(0.000000,408.000000) scale(0.100000,-0.100000)"
fill="#000000" stroke="none">
<path d="M1277 4063 c-10 -9 -9 -25 1 -19 5 3 25 -17 46 -44 21 -27 53 -59 72
-71 22 -14 33 -27 30 -36 -4 -9 0 -13 12 -11 9 1 29 -6 44 -16 15 -10 33 -16
40 -13 9 4 9 6 -2 6 -8 1 -49 32 -90 71 l-75 70 36 0 c19 0 39 -4 45 -10 5 -5
15 -6 23 -1 9 6 1 11 -28 16 -22 4 -41 11 -41 15 0 16 143 -30 158 -51 10 -14
17 -17 26 -10 8 7 25 3 54 -11 23 -12 40 -24 37 -26 -3 -3 4 -11 14 -18 10 -7
21 -26 24 -42 6 -30 91 -122 113 -122 7 0 16 5 20 11 4 8 9 7 15 -2 6 -10 9
-6 9 14 0 15 7 30 15 33 8 4 15 12 15 18 0 14 44 38 73 41 13 1 17 -6 17 -33
0 -45 10 -36 16 14 4 38 33 74 58 74 6 0 2 -7 -8 -15 -11 -8 -16 -15 -12 -15
5 0 3 -6 -3 -14 -9 -11 -8 -15 4 -20 9 -3 14 -2 10 3 -7 12 4 41 16 41 5 0 11
-11 15 -25 3 -14 11 -25 16 -25 6 0 5 -7 -2 -16 -11 -12 -11 -15 1 -12 23 5
14 -54 -15 -97 -24 -34 -26 -36 -26 -14 0 14 -6 33 -14 44 -7 11 -13 23 -12
27 0 3 -3 10 -8 15 -5 5 -6 3 -2 -4 4 -8 1 -13 -7 -13 -8 0 -17 -6 -20 -12 -2
-7 -34 -28 -70 -45 -62 -31 -83 -53 -78 -80 1 -7 -2 -13 -7 -13 -15 0 -117
110 -114 123 2 8 -1 8 -10 -1 -11 -11 -10 -16 6 -28 29 -21 0 -18 -53 6 -24
11 -52 20 -62 20 -11 0 -38 9 -61 21 -22 11 -52 23 -67 26 -14 2 -33 10 -41
18 -8 7 -30 16 -48 20 -37 8 -33 25 6 25 15 0 33 4 40 9 23 14 -12 21 -101 21
-78 -1 -81 -2 -55 -16 15 -8 39 -25 54 -39 15 -14 32 -25 38 -25 6 0 56 -18
111 -41 55 -23 109 -43 119 -45 29 -5 139 -43 154 -52 7 -5 15 -33 18 -63 8
-81 13 -99 28 -99 8 0 31 -41 54 -95 l40 -95 -24 -137 c-13 -76 -24 -153 -24
-170 0 -18 -4 -33 -8 -33 -10 0 -82 86 -82 99 0 5 -13 20 -29 34 l-30 25 23
21 c12 11 29 21 37 22 8 0 6 4 -6 8 -24 10 -55 -4 -55 -25 0 -11 -6 -14 -16
-10 -9 3 -18 6 -20 6 -2 0 -3 15 -3 33 l1 32 8 -30 c6 -25 8 -26 9 -7 0 13 13
35 27 49 15 15 32 41 40 58 15 37 10 44 -56 79 -19 10 -40 25 -47 33 -16 20
-33 8 -33 -23 0 -13 -4 -24 -10 -24 -5 0 -10 9 -10 19 0 11 -4 22 -10 26 -5 3
-7 12 -4 20 3 8 -6 25 -21 39 -20 18 -33 23 -58 19 -18 -3 -33 -9 -35 -14 -2
-5 -13 -9 -24 -9 -27 0 -81 -58 -73 -79 3 -8 3 -12 -1 -8 -4 4 -13 -2 -21 -13
-10 -14 -11 -25 -3 -39 16 -30 12 -38 -20 -44 -17 -4 -48 -26 -72 -50 -54 -56
-88 -73 -172 -88 -78 -13 -109 -35 -136 -96 -19 -43 -14 -57 10 -28 12 15 46
26 188 60 54 13 93 16 146 12 41 -4 88 -2 107 4 19 5 68 12 109 14 41 2 89 6
106 10 26 6 32 3 41 -18 9 -19 17 -23 35 -20 15 3 29 -2 37 -11 8 -9 20 -16
27 -16 8 0 16 -11 20 -24 3 -14 12 -27 19 -30 23 -8 43 -58 34 -86 -4 -14 -7
-19 -8 -12 -1 6 -5 12 -10 12 -10 0 -21 -92 -25 -219 -2 -53 -7 -86 -14 -89
-7 -2 -12 -10 -12 -17 0 -20 -221 -253 -269 -284 -23 -14 -41 -31 -41 -38 0
-19 -59 -82 -93 -100 -36 -18 -59 -39 -55 -50 2 -4 -8 -9 -22 -10 -17 -1 -19
0 -6 4 14 4 15 7 6 13 -38 24 -77 -35 -66 -101 5 -32 2 -46 -14 -66 -11 -14
-25 -43 -30 -64 -11 -42 -26 -50 -37 -22 -13 34 -71 118 -99 144 -51 45 -112
81 -170 100 -70 23 -144 17 -224 -18 -59 -26 -133 -90 -123 -106 3 -6 1 -7 -6
-3 -7 5 -34 -13 -67 -43 -31 -28 -59 -51 -62 -51 -4 0 -18 -18 -32 -40 -14
-22 -32 -40 -42 -40 -12 0 -21 -14 -29 -42 -7 -24 -16 -47 -21 -52 -4 -6 -8
-17 -8 -26 0 -8 -9 -21 -20 -28 -32 -20 -39 -51 -23 -100 16 -46 14 -85 -10
-147 -10 -25 -12 -44 -6 -49 12 -13 12 -46 0 -46 -5 0 -7 -8 -5 -17 6 -23 -19
-95 -43 -122 -10 -12 -18 -25 -18 -29 0 -4 -4 -13 -9 -21 -5 -8 -9 -47 -9 -87
0 -41 -4 -74 -8 -74 -5 0 -6 -7 -3 -15 4 -8 1 -22 -6 -30 -10 -12 -10 -15 0
-15 22 0 119 112 146 168 30 62 78 102 134 109 22 3 40 11 40 18 0 7 10 28 23
46 20 30 23 44 19 101 -3 54 0 76 17 111 11 24 21 60 21 81 0 41 18 125 31
141 4 6 13 41 20 78 10 51 10 73 1 92 -7 15 -8 24 -3 20 14 -8 23 11 26 53 7
79 22 104 82 133 39 18 63 22 130 21 45 0 92 -6 105 -13 52 -27 136 -110 158
-156 13 -26 27 -56 32 -65 4 -10 8 -26 8 -36 0 -11 21 -37 46 -58 l45 -39 -4
-70 c-8 -111 -41 -243 -75 -300 -17 -27 -17 -33 -4 -64 15 -37 13 -168 -3
-205 -6 -15 -5 -17 5 -11 10 6 12 2 7 -16 -4 -13 -7 -32 -7 -41 0 -10 -5 -18
-11 -18 -6 0 -8 9 -4 23 4 12 -9 -4 -28 -36 -20 -31 -55 -81 -80 -110 -58 -70
-90 -117 -84 -124 3 -3 20 16 38 41 18 25 37 46 42 46 5 0 -3 -14 -17 -31 -14
-17 -26 -36 -26 -44 0 -7 -7 -15 -15 -19 -8 -3 -15 -13 -15 -23 0 -15 -1 -15
-14 2 -13 18 -14 17 -31 -8 -10 -16 -14 -34 -10 -44 4 -10 9 -47 11 -83 10
-206 12 -239 18 -248 3 -5 -1 -12 -9 -16 -8 -3 -15 -10 -15 -15 0 -6 7 -8 15
-5 15 6 20 -9 16 -51 -3 -32 7 -49 22 -37 10 9 16 -1 25 -45 6 -31 9 -60 6
-64 -3 -5 0 -9 5 -9 6 0 10 -8 9 -17 -4 -50 1 -58 37 -58 21 0 35 5 35 13 0 6
-4 12 -8 12 -5 0 -9 15 -9 33 -1 44 -12 155 -19 195 -4 19 -1 38 5 46 9 11 9
15 0 18 -8 3 -10 11 -4 24 4 10 7 22 7 27 -1 4 3 7 8 7 6 0 10 5 10 12 0 6 -3
8 -7 4 -15 -14 -42 100 -42 180 -1 93 9 119 84 211 34 43 52 58 58 50 6 -8 7
-6 3 6 -8 25 43 80 66 72 10 -4 15 -11 12 -16 -11 -19 18 -8 42 16 20 20 23
28 14 45 -6 11 -16 20 -22 20 -9 0 -9 -3 0 -12 17 -17 15 -33 -3 -18 -18 15
-20 -1 -3 -18 16 -16 8 -15 -33 2 l-34 14 -49 -51 c-27 -29 -66 -75 -88 -104
-21 -29 -43 -53 -49 -53 -6 0 -7 -4 -4 -10 3 -5 2 -10 -4 -10 -6 0 -8 -7 -5
-15 4 -8 2 -15 -3 -15 -15 0 -9 -202 7 -230 8 -14 15 -29 16 -35 1 -5 5 -19 9
-30 4 -11 3 -15 -2 -9 -4 5 -18 10 -31 10 -22 0 -22 -1 -6 -13 10 -7 24 -13
31 -13 15 0 18 -16 4 -24 -12 -8 -15 -75 -6 -158 3 -27 1 -48 -4 -48 -11 0
-21 24 -21 50 0 9 -7 23 -15 30 -17 14 -21 35 -5 25 6 -3 10 -2 10 3 0 6 -7
12 -15 16 -11 4 -13 17 -11 50 2 25 7 50 12 57 4 7 3 9 -3 6 -7 -5 -11 6 -11
27 0 19 -5 42 -10 52 -6 12 -7 27 -1 43 6 13 7 31 4 39 -3 8 0 22 7 30 11 13
11 14 -1 7 -11 -6 -13 -4 -8 8 3 10 2 17 -3 17 -6 0 -10 7 -10 15 0 8 6 15 14
15 8 0 18 5 21 10 4 7 -2 9 -19 4 -35 -8 -33 9 3 36 17 11 33 31 37 43 4 12
19 37 35 56 15 19 26 38 23 43 -8 12 16 39 27 32 5 -3 9 -2 8 3 -3 19 2 34 9
29 5 -3 15 7 22 22 8 15 31 48 53 75 21 26 36 53 34 60 -3 7 -6 5 -6 -5 -1 -9
-4 -19 -8 -21 -14 -9 0 120 14 133 3 3 3 -5 0 -18 -3 -12 -1 -22 3 -22 5 0 9
28 8 62 0 39 -3 55 -8 43 -5 -16 -10 -9 -20 32 -8 29 -17 50 -22 47 -4 -3 -5
2 -2 10 12 32 29 16 25 -24 -2 -13 0 -13 8 -1 7 11 10 10 14 -5 4 -16 5 -16 6
4 0 12 5 22 10 22 12 0 25 -84 17 -105 -4 -11 -2 -14 6 -9 8 5 9 2 3 -12 -4
-10 -10 -31 -13 -47 -2 -15 -8 -30 -13 -33 -5 -3 -6 -32 -2 -64 4 -42 2 -60
-6 -60 -20 0 -12 -16 9 -17 25 -2 48 36 30 47 -13 8 -7 109 9 151 4 11 4 45 1
74 -3 30 -3 60 1 68 4 7 10 34 13 60 3 26 10 56 15 66 6 10 8 20 6 23 -12 12
26 103 52 123 25 21 26 24 11 39 -9 9 -21 16 -27 16 -6 0 -11 11 -11 25 0 14
5 25 11 25 8 0 8 4 -1 15 -9 11 -9 35 0 107 15 122 27 165 46 172 11 4 14 13
11 27 -7 28 32 90 75 119 18 13 54 44 81 69 l47 45 0 -36 c0 -19 7 -51 15 -71
8 -19 11 -37 8 -41 -4 -3 -1 -6 6 -6 7 0 21 -19 31 -43 11 -24 28 -52 40 -62
11 -10 20 -25 20 -33 0 -9 3 -12 7 -9 3 4 13 1 22 -6 9 -8 30 -19 48 -26 27
-11 39 -10 85 7 111 42 179 90 202 141 11 22 23 41 28 41 5 0 7 4 4 9 -5 7 9
60 31 121 3 8 8 31 10 50 2 19 13 69 23 112 25 94 25 98 1 98 -22 0 -34 -15
-38 -45 -3 -20 -3 -20 12 -1 20 26 19 14 -5 -62 -11 -34 -21 -77 -24 -95 -8
-61 -43 -172 -68 -217 -32 -56 -133 -123 -190 -124 -20 -1 -34 -5 -30 -10 3
-5 0 -6 -7 -2 -7 5 -23 9 -37 11 -25 2 -103 79 -104 101 0 5 -11 25 -25 44
-13 18 -22 37 -20 41 3 4 1 10 -4 14 -6 3 -7 13 -4 22 4 9 2 14 -3 10 -11 -6
-11 33 0 51 5 8 2 10 -8 6 -11 -4 -16 0 -16 14 0 29 217 263 265 285 21 11 47
30 58 43 11 14 37 32 58 41 22 8 39 19 39 25 0 5 30 23 68 40 50 23 86 32 143
36 127 8 155 -9 298 -180 40 -49 75 -88 78 -88 19 0 47 29 68 70 17 33 32 50
44 50 10 0 24 7 31 15 11 13 7 21 -21 51 -19 20 -54 48 -79 64 -43 28 -45 28
-72 12 -28 -16 -37 -32 -19 -32 6 0 13 4 16 10 12 19 109 -15 101 -36 -3 -8 3
-20 14 -26 26 -16 26 -32 0 -25 -17 4 -18 2 -10 -14 8 -14 6 -20 -10 -29 -11
-6 -19 -16 -17 -23 1 -7 -3 -11 -10 -10 -7 2 -10 -3 -7 -11 4 -11 0 -13 -18
-9 -18 4 -20 2 -8 -6 8 -5 11 -14 6 -18 -12 -12 -94 91 -88 111 2 6 1 8 -3 4
-10 -10 -48 29 -40 41 3 6 0 11 -7 11 -8 0 -28 15 -46 34 l-31 34 40 10 c41
10 71 10 100 -2 15 -6 15 0 2 71 -8 43 -16 98 -19 123 -8 76 -13 89 -50 128
-33 35 -39 37 -94 37 -56 -1 -77 14 -22 16 15 0 21 3 14 6 -12 4 -66 -6 -187
-36 -17 -4 -40 -3 -53 2 -17 8 -30 4 -63 -18 l-42 -28 24 -13 c23 -12 23 -13
4 -20 -11 -4 -24 -9 -29 -12 -5 -3 -6 0 -2 6 4 7 1 12 -8 12 -17 0 -21 20 -8
35 5 6 15 30 22 55 8 25 24 59 37 76 13 17 25 46 29 65 12 74 13 76 43 82 20
4 43 24 75 66 75 97 157 121 251 74 36 -18 125 -84 180 -133 77 -69 242 -179
294 -196 58 -19 78 -12 44 16 -13 10 -23 21 -23 24 0 12 -108 172 -129 190
-11 11 -21 24 -21 31 0 7 -8 19 -18 28 -10 9 -28 37 -40 61 -13 24 -29 47 -37
50 -17 6 -21 -9 -5 -19 18 -11 11 -23 -10 -18 -12 3 -20 0 -20 -7 0 -7 6 -10
14 -7 8 3 24 -5 37 -19 14 -15 17 -24 10 -24 -11 0 -11 -3 -1 -15 7 -8 19 -15
27 -15 8 0 12 -4 9 -8 -2 -4 12 -26 32 -48 42 -45 76 -94 66 -94 -4 0 1 -9 11
-20 10 -11 14 -20 9 -20 -5 0 2 -7 14 -16 23 -16 30 -44 11 -44 -6 0 -8 7 -5
16 3 8 2 12 -4 9 -13 -8 -66 21 -74 41 -4 9 -9 14 -13 11 -9 -10 -64 33 -57
45 4 7 2 8 -4 4 -7 -4 -29 6 -49 21 -63 47 -66 51 -41 56 18 3 17 5 -7 6 -32
1 -102 56 -97 75 2 6 0 8 -3 4 -9 -8 -85 28 -85 41 0 4 43 7 95 6 52 -1 95 2
95 7 0 8 -25 11 -95 12 -16 1 -40 7 -52 14 -13 7 -23 8 -23 3 0 -5 -15 -9 -32
-9 -48 1 -142 -18 -176 -36 -17 -9 -56 -45 -87 -80 -70 -79 -90 -79 -66 2 10
32 23 68 30 80 12 22 14 22 30 8 25 -23 35 -20 17 6 -22 31 -21 33 17 57 31
19 41 20 150 11 65 -6 132 -16 150 -23 17 -7 52 -14 77 -15 43 -2 44 -2 20 11
-14 7 -46 19 -73 26 -26 8 -50 18 -53 23 -3 5 -15 6 -26 2 -11 -3 -18 -2 -15
2 3 5 -42 8 -99 7 -65 -2 -103 1 -99 7 4 6 -2 7 -12 4 -23 -8 -74 -62 -92 -97
-8 -14 -17 -25 -20 -22 -4 2 -7 -4 -8 -13 -3 -35 -27 -112 -34 -112 -8 0 -59
62 -59 72 0 3 25 25 56 49 30 23 68 61 84 84 52 75 145 100 261 71 75 -20 86
-16 21 7 -55 20 -87 57 -50 57 13 0 32 8 43 17 20 16 20 16 0 8 -11 -4 -36
-12 -55 -17 -31 -9 -32 -11 -17 -23 26 -19 21 -25 -21 -23 -22 0 -44 -2 -50
-6 -7 -4 -12 -1 -12 7 0 15 31 47 45 47 5 0 17 8 28 18 11 9 17 11 13 5 -4 -7
-5 -13 -1 -13 3 0 10 11 15 25 12 31 37 42 53 25 7 -7 8 -11 2 -8 -5 3 -18 -3
-27 -14 -24 -24 -3 -23 31 1 18 13 37 18 52 15 34 -8 87 -33 94 -44 3 -6 11
-10 16 -10 6 0 7 4 4 10 -3 6 1 7 9 4 9 -3 16 -10 16 -15 0 -5 6 -9 14 -9 8 0
16 -7 20 -15 4 -12 -3 -15 -36 -15 -23 0 -39 -2 -36 -5 5 -5 57 -13 96 -14 7
-1 11 -5 8 -10 -4 -5 3 -7 14 -4 11 3 20 0 20 -6 0 -6 5 -11 12 -11 6 0 31
-11 54 -25 41 -24 43 -27 32 -51 -7 -14 -14 -20 -18 -14 -4 6 -14 8 -22 5 -8
-3 -22 0 -30 8 -8 8 -34 17 -59 20 -50 6 -119 28 -119 39 0 4 -7 4 -17 1 -9
-4 -14 -2 -11 3 3 5 -7 9 -23 10 -16 1 -29 0 -29 -1 0 -3 124 -50 220 -84 78
-28 132 -39 169 -34 l38 5 -14 29 c-8 16 -20 29 -27 29 -7 0 -40 18 -72 40
-33 22 -72 45 -89 50 -16 5 -39 24 -50 40 -25 38 -121 87 -205 104 l-62 13
-72 -57 c-39 -32 -88 -74 -110 -94 -39 -36 -53 -45 -40 -25 3 6 -7 4 -24 -5
-17 -9 -32 -21 -35 -28 -3 -10 -8 -10 -16 -2 -14 13 -3 40 49 129 41 71 39
105 -15 199 -25 43 -49 92 -54 110 -8 29 -9 27 -11 -24 -1 -30 -2 -60 -1 -66
2 -16 -18 -29 -64 -44 -56 -18 -79 -35 -110 -80 -28 -41 -45 -51 -45 -26 0 7
-15 25 -34 39 -19 15 -36 38 -39 54 -3 16 -18 41 -32 56 -31 30 -111 72 -137
70 -10 -1 -18 2 -18 6 0 12 -122 41 -173 41 -27 0 -49 6 -57 15 -14 16 -23 19
-33 8z m100 -39 c-3 -3 -12 -4 -19 -1 -8 3 -5 6 6 6 11 1 17 -2 13 -5z m653
-365 l0 -56 -61 1 -61 1 -16 -49 c-26 -77 -43 -71 -35 11 3 37 10 75 14 85 5
9 32 24 60 33 34 11 54 25 61 41 10 22 12 22 24 6 7 -9 14 -42 14 -73z m-227
-46 c8 -16 12 -33 10 -40 -2 -7 0 -20 6 -30 8 -15 6 -19 -10 -19 -15 0 -19 7
-19 36 0 19 -3 45 -6 58 -9 31 3 28 19 -5z m186 -54 c38 -13 42 -46 9 -76 -38
-34 -47 -35 -79 -12 -25 18 -29 26 -24 48 13 52 34 61 94 40z m85 -22 c-8 -22
-31 -28 -38 -10 -4 10 -2 13 8 10 8 -3 17 1 20 10 4 9 9 14 11 11 3 -3 3 -12
-1 -21z m733 -17 c14 -21 3 -33 -20 -24 -9 3 -13 13 -10 25 7 24 15 24 30 -1z
m-947 -48 c0 -4 10 -12 23 -17 18 -8 23 -19 25 -63 3 -59 -12 -64 -23 -9 -4
17 -16 44 -26 59 -21 30 -23 38 -9 38 6 0 10 -3 10 -8z m-324 -65 c-2 -9 0
-15 5 -11 5 3 9 -4 9 -15 0 -12 4 -21 8 -21 5 0 9 -7 9 -16 0 -10 -7 -14 -19
-11 -10 3 -18 1 -18 -4 0 -5 -7 -9 -15 -9 -8 0 -15 -5 -15 -11 0 -8 -17 -10
-55 -6 -31 3 -55 2 -55 -4 0 -5 6 -9 13 -10 69 -4 93 -3 97 2 3 3 28 9 57 12
51 6 52 6 62 -26 15 -51 23 -107 14 -107 -13 1 -43 26 -43 37 0 14 -41 50 -66
57 -24 7 -42 -18 -22 -30 7 -4 8 -3 4 4 -18 30 19 7 61 -38 26 -27 54 -50 62
-50 30 0 -1 -14 -37 -16 -62 -4 -144 -14 -202 -26 -66 -13 -133 -12 -158 1
-11 6 -23 6 -28 1 -5 -5 -40 -14 -78 -20 -38 -6 -77 -15 -87 -21 -16 -8 -19
-6 -19 10 0 14 5 19 15 14 9 -3 23 1 33 9 21 19 77 34 67 19 -3 -7 0 -8 9 -5
9 3 13 11 10 16 -4 6 6 2 22 -8 16 -10 24 -12 17 -4 -10 11 -7 18 15 37 15 12
30 23 34 23 4 0 9 9 13 19 3 10 16 22 29 25 12 3 36 18 52 33 16 15 33 26 38
25 5 -2 3 4 -4 13 -21 26 -21 47 1 52 14 4 18 11 14 24 -4 13 -1 19 9 19 9 0
16 6 16 14 0 17 33 31 38 16 3 -7 10 -4 18 7 7 10 14 13 14 7 0 -6 7 -11 14
-11 12 0 13 5 4 20 -10 19 -10 19 16 1 16 -12 24 -26 22 -37z m409 13 c-3 -5
-10 -10 -16 -10 -5 0 -9 5 -9 10 0 6 7 10 16 10 8 0 12 -4 9 -10z m12 -50 c3
-11 11 -20 19 -20 23 0 35 -35 24 -66 -6 -15 -8 -39 -6 -53 3 -14 -1 -37 -9
-51 -17 -29 -20 -14 -5 27 l10 28 -19 -25 c-18 -23 -20 -23 -15 -4 4 15 -2 27
-21 42 -25 20 -27 26 -20 68 3 26 9 53 12 60 8 20 24 17 30 -6z m-284 -35 c20
-10 37 -22 37 -26 0 -20 -21 -60 -29 -55 -5 4 -11 0 -14 -6 -2 -7 -8 -1 -12
15 -4 15 -11 27 -17 27 -5 0 -6 4 -3 10 3 5 -3 15 -14 22 -15 9 -17 15 -9 25
6 8 14 12 17 11 3 -2 23 -12 44 -23z m257 -134 c8 -29 6 -50 -6 -92 -9 -30
-19 -58 -22 -64 -4 -5 -7 -22 -8 -36 -1 -14 -4 -36 -8 -50 -4 -18 -2 -17 8 6
12 25 15 27 21 12 9 -22 -24 -76 -35 -58 -4 7 -10 -11 -13 -40 -4 -29 -14 -60
-23 -68 -9 -9 -14 -11 -10 -4 3 6 2 14 -3 17 -9 6 -32 -70 -23 -79 11 -11 22
-4 22 14 0 41 19 29 30 -19 14 -59 33 -67 24 -10 -6 36 -4 40 20 51 14 7 26
17 26 22 0 6 2 8 5 5 7 -7 -5 -39 -14 -34 -3 2 -7 -11 -9 -30 -1 -19 -10 -47
-19 -61 l-17 -26 -13 29 c-11 26 -12 27 -13 6 0 -13 10 -33 21 -45 15 -15 20
-17 16 -6 -3 9 3 23 14 32 10 9 19 23 19 32 0 8 9 34 19 57 35 78 50 141 37
157 -8 11 -8 13 1 8 7 -5 9 -1 6 12 -8 29 37 54 84 47 21 -3 57 -7 81 -8 38
-2 46 -7 71 -42 15 -23 48 -71 74 -108 27 -38 44 -68 40 -68 -4 0 -2 -5 5 -12
25 -25 14 -36 -25 -27 -59 14 -213 11 -268 -5 -67 -19 -145 -55 -145 -67 0 -6
7 -6 19 1 49 26 35 1 -15 -29 -36 -21 -36 -21 -41 -1 -7 26 -20 26 -28 0 -3
-11 -18 -29 -33 -40 -18 -15 -22 -24 -14 -28 7 -5 -2 -16 -26 -31 -20 -13 -73
-64 -117 -113 -130 -146 -195 -214 -195 -204 0 5 30 42 68 81 179 190 293 325
273 325 -11 0 -2 70 11 87 5 7 5 14 -1 17 -6 4 -8 13 -4 21 3 8 1 15 -5 15 -6
0 -1 28 11 65 21 61 44 92 31 41 -3 -13 -1 -26 4 -30 5 -3 10 20 11 54 1 33 6
73 12 88 13 33 16 49 31 179 7 56 16 100 20 97 4 -3 12 -22 18 -43z m-266 -96
c3 -8 1 -15 -4 -15 -6 0 -10 7 -10 15 0 8 2 15 4 15 2 0 6 -7 10 -15z m-654
-18 c0 -2 -10 -12 -22 -23 l-23 -19 19 23 c18 21 26 27 26 19z m1344 -60 c43
-23 62 -64 61 -127 0 -34 5 -61 14 -70 8 -9 10 -15 3 -18 -7 -2 -5 -12 3 -30
11 -19 11 -29 3 -39 -12 -15 -65 -14 -60 1 2 5 0 12 -5 15 -5 3 -40 52 -78
109 -70 106 -96 132 -128 132 -11 0 -15 5 -11 11 5 8 1 8 -14 0 -11 -6 -27
-11 -34 -10 -7 0 -4 4 7 9 16 7 12 9 -18 9 -21 1 -50 -5 -65 -13 -15 -7 -36
-10 -46 -7 -29 11 127 42 173 35 24 -4 41 -2 45 5 10 16 114 8 150 -12z m-517
-89 c-3 -8 -6 -5 -6 6 -1 11 2 17 5 13 3 -3 4 -12 1 -19z m118 2 c-3 -5 -13
-10 -21 -10 -8 0 -12 5 -9 10 3 6 13 10 21 10 8 0 12 -4 9 -10z m-25 -72 c-11
-29 -29 -61 -40 -72 -20 -20 -20 -20 -20 -1 0 11 8 41 17 67 15 42 25 52 55
57 5 0 -1 -22 -12 -51z m-451 -607 c-14 -22 -56 -50 -44 -29 14 23 38 48 47
48 4 0 3 -8 -3 -19z m-59 -86 c-13 -14 -27 -25 -32 -25 -9 0 42 49 51 50 3 0
-6 -11 -19 -25z m-70 -60 c-13 -14 -26 -23 -28 -20 -7 6 29 44 42 44 5 1 -1
-10 -14 -24z m-126 -66 c-23 -25 -27 -19 -13 21 10 27 13 30 21 16 7 -13 5
-23 -8 -37z m86 32 c0 -6 -5 -13 -10 -16 -6 -4 -10 -12 -9 -18 3 -24 -1 -38
-10 -33 -5 3 -11 -1 -15 -9 -3 -8 -1 -15 4 -15 6 0 10 -7 10 -15 0 -8 -4 -15
-10 -15 -5 0 -10 5 -10 10 0 6 -6 10 -14 10 -21 0 -28 29 -11 46 8 9 15 22 15
30 0 8 10 19 23 24 29 12 37 12 37 1z m-297 -99 c37 -41 75 -97 78 -117 4 -25
13 -45 26 -49 9 -4 11 -2 7 6 -4 6 -3 8 3 5 6 -4 16 0 23 8 17 20 38 8 33 -19
-3 -13 1 -27 8 -31 7 -5 10 -4 6 2 -4 6 -2 25 3 42 7 27 7 32 -5 27 -8 -3 -15
-1 -15 5 0 6 -4 8 -9 5 -14 -9 0 42 15 55 12 10 13 8 5 -14 -6 -15 -6 -29 -2
-32 10 -6 23 20 27 54 2 13 8 29 13 34 19 19 21 -16 7 -108 -7 -49 -13 -109
-12 -133 1 -23 -3 -42 -8 -42 -4 0 -6 -7 -2 -15 3 -8 1 -26 -4 -40 -7 -19 -6
-23 5 -18 11 4 15 -3 15 -28 0 -27 -3 -31 -11 -19 -8 12 -9 10 -4 -7 4 -13 2
-23 -4 -23 -15 0 -41 -106 -45 -182 0 -14 -4 -24 -7 -22 -3 2 -14 -3 -25 -10
-16 -12 -20 -11 -33 6 -12 17 -12 21 0 29 8 5 19 8 24 8 6 0 4 -3 -2 -6 -7 -2
-13 -10 -13 -16 0 -8 4 -7 12 1 16 16 20 44 5 35 -7 -4 -5 4 4 17 9 14 23 59
32 100 18 82 32 258 18 225 -8 -20 -8 -19 -15 2 -4 14 -12 20 -22 16 -10 -4
-12 0 -8 11 4 10 -2 19 -19 27 -18 8 -28 24 -36 54 -6 23 -17 48 -26 55 -8 7
-15 19 -15 27 0 20 -29 64 -64 95 -17 16 -26 28 -20 28 6 0 32 -22 57 -48z
m-499 -44 c-8 -24 -17 -83 -19 -133 -3 -49 -6 -99 -8 -110 -10 -58 -21 -86
-31 -82 -9 4 -12 -11 -11 -47 1 -28 -3 -57 -9 -65 -8 -11 -8 -13 2 -7 15 9 15
4 0 -29 -6 -14 -17 -25 -25 -25 -16 0 -17 -17 -1 -22 6 -2 8 -10 4 -17 -6 -9
-11 -9 -22 0 -9 7 -14 8 -14 1 0 -6 5 -14 11 -18 6 -3 9 -14 6 -24 -3 -11 1
-21 9 -24 8 -3 14 -19 14 -38 0 -21 -3 -28 -9 -20 -6 10 -12 6 -25 -14 -10
-14 -13 -23 -6 -19 9 5 9 1 -1 -16 -7 -13 -11 -26 -10 -29 1 -3 -11 -6 -26 -8
-27 -3 -27 -3 -8 12 11 8 15 16 8 16 -6 0 -19 -10 -28 -22 -8 -13 -18 -22 -20
-20 -21 10 -44 -3 -58 -33 -9 -20 -24 -38 -32 -41 -8 -4 -13 -10 -10 -14 8
-13 -26 -64 -64 -95 l-33 -29 8 45 c4 24 7 54 7 67 -1 12 3 22 8 22 5 0 9 7 9
16 0 8 4 13 9 10 5 -4 7 2 4 12 -4 18 30 54 83 90 10 7 5 5 -13 -3 -18 -8 -34
-15 -36 -15 -2 0 1 21 8 47 13 50 56 96 118 127 18 8 25 16 16 16 -8 0 -38
-16 -65 -35 l-49 -35 -3 26 c-2 15 2 31 10 35 8 6 9 9 2 9 -20 0 6 82 35 111
14 14 37 39 51 55 l25 29 -29 -25 c-16 -14 -40 -36 -52 -50 -22 -23 -23 -24
-25 -5 -1 11 -1 26 0 33 1 6 -3 12 -9 12 -21 0 -8 36 30 81 24 28 38 54 34 62
-8 21 13 57 52 90 19 16 34 35 34 43 0 8 12 20 28 27 37 16 81 57 62 57 -10 0
-8 6 8 22 25 26 39 19 22 -12 -6 -11 -10 -26 -8 -32 2 -6 12 10 22 35 22 59
41 62 20 5z m16 -37 c0 -6 -4 -13 -10 -16 -5 -3 -10 1 -10 9 0 9 5 16 10 16 6
0 10 -4 10 -9z m725 -301 c-3 -5 -1 -10 5 -10 6 0 8 -4 5 -10 -10 -17 -25 -11
-25 10 0 11 5 20 11 20 5 0 7 -4 4 -10z m-302 -1551 c-7 -26 -13 -19 -18 22
-4 30 -3 32 9 16 8 -10 12 -27 9 -38z"/>
<path d="M1416 3206 c10 -8 21 -12 24 -10 5 6 -21 24 -34 24 -6 0 -1 -6 10
-14z"/>
<path d="M1482 3164 c10 -10 20 -16 22 -13 3 3 -5 11 -17 18 -21 13 -21 12 -5
-5z"/>
<path d="M1810 2680 c0 -5 7 -10 15 -10 8 0 15 5 15 10 0 6 -7 10 -15 10 -8 0
-15 -4 -15 -10z"/>
<path d="M1818 2653 c7 -3 16 -2 19 1 4 3 -2 6 -13 5 -11 0 -14 -3 -6 -6z"/>
<path d="M1142 1798 c2 -6 15 -18 29 -26 21 -12 22 -12 7 1 -10 8 -18 19 -18
26 0 6 -5 11 -11 11 -6 0 -9 -5 -7 -12z"/>
<path d="M452 1855 c-15 -32 -15 -35 0 -35 6 0 8 3 5 6 -3 4 -2 15 4 26 6 11
9 22 6 24 -2 2 -9 -7 -15 -21z"/>
<path d="M365 1785 c-22 -19 -46 -34 -54 -35 -8 0 -11 -3 -8 -7 4 -3 -1 -12
-11 -20 -9 -8 -12 -13 -6 -11 6 2 29 17 50 35 21 18 50 41 64 52 14 11 21 20
15 21 -5 0 -28 -16 -50 -35z"/>
<path d="M434 1788 c-4 -6 -8 -23 -10 -37 -2 -14 -9 -52 -17 -84 -8 -33 -11
-55 -7 -50 11 13 43 143 36 150 -3 3 -1 12 5 20 6 7 9 13 6 13 -3 0 -9 -5 -13
-12z"/>
<path d="M261 1614 c0 -11 3 -14 6 -6 3 7 2 16 -1 19 -3 4 -6 -2 -5 -13z"/>
<path d="M336 1615 c-16 -12 -17 -15 -4 -15 9 0 18 7 22 15 7 18 6 18 -18 0z"/>
<path d="M381 1563 c-6 -21 -11 -54 -11 -73 0 -26 -3 -31 -10 -20 -6 9 -10 10
-10 3 0 -19 20 -26 26 -10 3 9 7 30 9 49 2 18 4 34 5 36 2 1 3 5 4 10 1 4 5
12 9 19 4 6 3 14 -2 18 -6 3 -15 -11 -20 -32z"/>
<path d="M250 1459 c0 -5 5 -7 10 -4 6 3 10 8 10 11 0 2 -4 4 -10 4 -5 0 -10
-5 -10 -11z"/>
<path d="M342 1426 c3 -28 13 -34 21 -12 3 8 -1 20 -9 26 -12 10 -14 8 -12
-14z"/>
<path d="M322 1347 c-11 -25 -23 -56 -27 -69 -7 -20 -6 -21 8 -10 15 13 50
112 42 120 -2 2 -12 -17 -23 -41z"/>
<path d="M395 1320 c-3 -5 -1 -10 4 -10 6 0 11 5 11 10 0 6 -2 10 -4 10 -3 0
-8 -4 -11 -10z"/>
<path d="M280 1236 c0 -8 -3 -23 -6 -33 -3 -10 2 -7 10 7 18 30 20 40 6 40 -5
0 -10 -6 -10 -14z"/>
<path d="M1610 3871 c0 -6 4 -13 10 -16 6 -3 7 1 4 9 -7 18 -14 21 -14 7z"/>
<path d="M1535 3830 c3 -5 11 -10 16 -10 6 0 7 5 4 10 -3 6 -11 10 -16 10 -6
0 -7 -4 -4 -10z"/>
<path d="M1570 3815 c0 -10 41 -45 52 -45 6 0 23 -9 38 -20 23 -16 29 -17 33
-5 4 10 1 12 -10 8 -12 -5 -14 -3 -8 7 5 8 4 11 -3 6 -10 -6 -46 8 -62 24 -17
17 -40 31 -40 25z"/>
<path d="M1690 3810 c0 -5 5 -10 10 -10 6 0 10 5 10 10 0 6 -4 10 -10 10 -5 0
-10 -4 -10 -10z"/>
<path d="M1751 3744 c0 -11 3 -14 6 -6 3 7 2 16 -1 19 -3 4 -6 -2 -5 -13z"/>
<path d="M1817 3693 c-4 -3 -7 -13 -7 -22 1 -13 3 -13 11 2 11 19 8 33 -4 20z"/>
<path d="M2680 3320 c8 -5 20 -10 25 -10 6 0 3 5 -5 10 -8 5 -19 10 -25 10 -5
0 -3 -5 5 -10z"/>
<path d="M2740 3240 c8 -5 20 -10 25 -10 6 0 3 5 -5 10 -8 5 -19 10 -25 10 -5
0 -3 -5 5 -10z"/>
<path d="M2415 2680 c-3 -5 -5 -10 -3 -11 30 -7 48 -7 48 0 0 5 -7 12 -16 15
-21 8 -22 8 -29 -4z"/>
<path d="M1696 2557 c-14 -14 -27 -22 -30 -19 -3 3 -6 -2 -6 -10 0 -8 -10 -28
-22 -44 -11 -16 5 -3 37 28 33 32 56 60 53 64 -4 3 -18 -5 -32 -19z"/>
<path d="M1870 2530 c8 -27 7 -37 -3 -45 -8 -5 -14 -17 -15 -25 -1 -8 -6 -36
-11 -62 -6 -27 -8 -55 -4 -65 4 -9 2 -14 -3 -10 -6 4 -9 -7 -7 -26 3 -27 2
-29 -6 -12 -8 15 -9 9 -7 -27 1 -29 -2 -46 -8 -45 -19 3 -15 -70 4 -86 16 -14
20 -13 43 11 14 15 43 62 65 104 45 87 73 130 110 171 14 15 22 27 16 27 -17
0 -105 -119 -128 -174 -24 -58 -66 -117 -78 -110 -8 5 -9 2 -5 -9 3 -10 3 -17
-2 -17 -9 0 -21 35 -20 60 0 10 3 8 9 -5 7 -16 9 -12 9 20 1 22 12 82 26 134
14 52 23 101 21 108 -3 7 -1 15 4 18 15 9 12 59 -5 81 -13 17 -13 16 -5 -16z"/>
<path d="M2501 2514 c13 -16 29 -19 29 -5 0 5 -9 11 -21 14 -16 4 -18 3 -8 -9z"/>
<path d="M1800 2473 c0 -5 9 -14 20 -21 11 -7 20 -8 20 -2 0 5 -9 14 -20 20
-11 6 -20 7 -20 3z"/>
<path d="M2001 2356 c-7 -8 -8 -17 -3 -20 6 -3 12 3 15 14 6 24 4 25 -12 6z"/>
<path d="M1936 2224 c-4 -9 -4 -19 -1 -22 2 -3 7 3 11 12 4 9 4 19 1 22 -2 3
-7 -3 -11 -12z"/>
<path d="M870 500 c0 -5 5 -10 11 -10 5 0 7 5 4 10 -3 6 -8 10 -11 10 -2 0 -4
-4 -4 -10z"/>
<path d="M902 353 c-6 -2 -10 -9 -7 -13 7 -11 35 -2 35 11 0 10 -8 10 -28 2z"/>
</g>
</svg>
